{"accessors":[{"bufferView":0,"byteOffset":0,"componentType":5126,"count":8,"max":[0.025,0.05,0.025],"min":[-0.025,0.05,-0.025],"type":"VEC3"},{"bufferView":0,"byteOffset":96,"componentType":5126,"count":16,"max":[0.024,0.05,0.024],"min":[-0.024,0.041,0.015],"type":"VEC3"},{"bufferView":0,"byteOffset":288,"componentType":5126,"count":16,"max":[0.024,0.05,0.024],"min":[0.015,0.041,-0.024],"type":"VEC3"},{"bufferView":0,"byteOffset":480,"componentType":5126,"count":16,"max":[-0.015,0.05,0.024],"min":[-0.024,0.041,-0.024],"type":"VEC3"},{"bufferView":0,"byteOffset":672,"componentType":5126,"count":16,"max":[0.024,0.05,-0.015],"min":[-0.024,0.041,-0.024],"type":"VEC3"},{"bufferView":0,"byteOffset":864,"componentType":5126,"count":4,"max":[0.025,0.05,-0.025],"min":[-0.025,0.0,-0.025],"type":"VEC3"},{"bufferView":0,"byteOffset":912,"componentType":5126,"count":4,"max":[-0.025,0.05,0.025],"min":[-0.025,0.0,-0.025],"type":"VEC3"},{"bufferView":0,"byteOffset":960,"componentType":5126,"count":4,"max":[0.025,0.05,0.025],"min":[0.025,0.0,-0.025],"type":"VEC3"},{"bufferView":0,"byteOffset":1008,"componentType":5126,"count":4,"max":[0.025,0.05,0.025],"min":[-0.025,0.0,0.025],"type":"VEC3"},{"bufferView":0,"byteOffset":1056,"componentType":5126,"count":30,"max":[0.015,0.041,0.015],"min":[-0.015,0.03,0.01499999999999999],"type":"VEC3"},{"bufferView":0,"byteOffset":1416,"componentType":5126,"count":4,"max":[0.015,0.041,0.015],"min":[0.015,0.03,-0.015],"type":"VEC3"},{"bufferView":0,"byteOffset":1464,"componentType":5126,"count":4,"max":[-0.015,0.041,0.015],"min":[-0.015,0.03,-0.015],"type":"VEC3"},{"bufferView":0,"byteOffset":1512,"componentType":5126,"count":30,"max":[0.015,0.041,-0.015],"min":[-0.015,0.03,-0.01500000000000001],"type":"VEC3"},{"bufferView":0,"byteOffset":1872,"componentType":5126,"count":4,"max":[0.025,0.0,0.025],"min":[-0.025,0.0,-0.025],"type":"VEC3"},{"bufferView":0,"byteOffset":1920,"componentType":5126,"count":5,"max":[0.015,0.03,0.015],"min":[-0.015,0.03,-0.015],"type":"VEC3"},{"bufferView":0,"byteOffset":1980,"componentType":5126,"count":208,"max":[0.004982922465033354,0.03998292246503335,0.014999999999999996],"min":[-0.005,0.03,-0.01500000000000001],"type":"VEC3"},{"bufferView":1,"byteOffset":0,"componentType":5126,"count":8,"type":"VEC3"},{"bufferView":1,"byteOffset":96,"componentType":5126,"count":16,"type":"VEC3"},{"bufferView":1,"byteOffset":288,"componentType":5126,"count":16,"type":"VEC3"},{"bufferView":1,"byteOffset":480,"componentType":5126,"count":16,"type":"VEC3"},{"bufferView":1,"byteOffset":672,"componentType":5126,"count":16,"type":"VEC3"},{"bufferView":1,"byteOffset":864,"componentType":5126,"count":4,"type":"VEC3"},{"bufferView":1,"byteOffset":912,"componentType":5126,"count":4,"type":"VEC3"},{"bufferView":1,"byteOffset":960,"componentType":5126,"count":4,"type":"VEC3"},{"bufferView":1,"byteOffset":1008,"componentType":5126,"count":4,"type":"VEC3"},{"bufferView":1,"byteOffset":1056,"componentType":5126,"count":30,"type":"VEC3"},{"bufferView":1,"byteOffset":1416,"componentType":5126,"count":4,"type":"VEC3"},{"bufferView":1,"byteOffset":1464,"componentType":5126,"count":4,"type":"VEC3"},{"bufferView":1,"byteOffset":1512,"componentType":5126,"count":30,"type":"VEC3"},{"bufferView":1,"byteOffset":1872,"componentType":5126,"count":4,"type":"VEC3"},{"bufferView":1,"byteOffset":1920,"componentType":5126,"count":5,"type":"VEC3"},{"bufferView":1,"byteOffset":1980,"componentType":5126,"count":208,"type":"VEC3"},{"bufferView":2,"byteOffset":0,"componentType":5123,"count":24,"type":"SCALAR"},{"bufferView":2,"byteOffset":48,"componentType":5123,"count":42,"type":"SCALAR"},{"bufferView":2,"byteOffset":132,"componentType":5123,"count":42,"type":"SCALAR"},{"bufferView":2,"byteOffset":216,"componentType":5123,"count":42,"type":"SCALAR"},{"bufferView":2,"byteOffset":300,"componentType":5123,"count":42,"type":"SCALAR"},{"bufferView":2,"byteOffset":384,"componentType":5123,"count":6,"type":"SCALAR"},{"bufferView":2,"byteOffset":396,"componentType":5123,"count":6,"type":"SCALAR"},{"bufferView":2,"byteOffset":408,"componentType":5123,"count":6,"type":"SCALAR"},{"bufferView":2,"byteOffset":420,"componentType":5123,"count":6,"type":"SCALAR"},{"bufferView":2,"byteOffset":432,"componentType":5123,"count":87,"type":"SCALAR"},{"bufferView":2,"byteOffset":608,"componentType":5123,"count":6,"type":"SCALAR"},{"bufferView":2,"byteOffset":620,"componentType":5123,"count":6,"type":"SCALAR"},{"bufferView":2,"byteOffset":632,"componentType":5123,"count":90,"type":"SCALAR"},{"bufferView":2,"byteOffset":812,"componentType":5123,"count":6,"type":"SCALAR"},{"bufferView":2,"byteOffset":824,"componentType":5123,"count":9,"type":"SCALAR"},{"bufferView":2,"byteOffset":844,"componentType":5123,"count":1014,"type":"SCALAR"}],"asset":{"generator":"Open CASCADE Technology 7.6 [dev.opencascade.org]","version":"2.0"},"bufferViews":[{"buffer":0,"byteLength":4476,"byteOffset":0,"byteStride":12,"target":34962},{"buffer":0,"byteLength":4476,"byteOffset":4476,"byteStride":12,"target":34962},{"buffer":0,"byteLength":2872,"byteOffset":8952,"target":34963}],"buffers":[{"byteLength":11824,"uri":"fun-box.bin"}],"materials":[{"name":"mat_0","pbrMetallicRoughness":{"baseColorFactor":[0.6038273572921753,0.6038273572921753,0.6038273572921753,1.0]},"doubleSided":true}],"meshes":[{"name":"Body","primitives":[{"attributes":{"NORMAL":16,"POSITION":0},"indices":32,"material":0,"mode":4},{"attributes":{"NORMAL":17,"POSITION":1},"indices":33,"material":0,"mode":4},{"attributes":{"NORMAL":18,"POSITION":2},"indices":34,"material":0,"mode":4},{"attributes":{"NORMAL":19,"POSITION":3},"indices":35,"material":0,"mode":4},{"attributes":{"NORMAL":20,"POSITION":4},"indices":36,"material":0,"mode":4},{"attributes":{"NORMAL":21,"POSITION":5},"indices":37,"material":0,"mode":4},{"attributes":{"NORMAL":22,"POSITION":6},"indices":38,"material":0,"mode":4},{"attributes":{"NORMAL":23,"POSITION":7},"indices":39,"material":0,"mode":4},{"attributes":{"NORMAL":24,"POSITION":8},"indices":40,"material":0,"mode":4},{"attributes":{"NORMAL":25,"POSITION":9},"indices":41,"material":0,"mode":4},{"attributes":{"NORMAL":26,"POSITION":10},"indices":42,"material":0,"mode":4},{"attributes":{"NORMAL":27,"POSITION":11},"indices":43,"material":0,"mode":4},{"attributes":{"NORMAL":28,"POSITION":12},"indices":44,"material":0,"mode":4},{"attributes":{"NORMAL":29,"POSITION":13},"indices":45,"material":0,"mode":4},{"attributes":{"NORMAL":30,"POSITION":14},"indices":46,"material":0,"mode":4},{"attributes":{"NORMAL":31,"POSITION":15},"indices":47,"material":0,"mode":4}]}],"nodes":[{"mesh":0,"name":"Body"}],"scene":0,"scenes":[{"nodes":[0]}]}